<?xml version="1.0" encoding="UTF-8"?><svg id="Layer_1" xmlns="http://www.w3.org/2000/svg" viewBox="0 0 370 100"><path d="M125.1,89.5v-14.1h5.4c.9,0,1.6.1,2.2.4s1.1.7,1.4,1.2.5,1.1.5,1.8-.2,1.2-.5,1.7-.8.9-1.4,1.1v.2c.9.2,1.7.7,2.1,1.3.5.6.7,1.4.7,2.3s-.4,2.3-1.2,3-1.9,1.1-3.4,1.1h-5.8ZM130.5,81.3c.8,0,1.4-.2,1.8-.6s.6-1,.6-1.7-.2-1.3-.6-1.7-1-.6-1.8-.6h-3.6v4.5h3.6v.1ZM130.8,88.1c2,0,3-.9,3-2.7s-1-2.7-3-2.7h-4v5.4h4Z"/><path d="M149.5,82.8v5.3h7.2v1.4h-8.9v-14.1h8.7v1.4h-7v4.7h6.2v1.4h-6.2v-.1Z"/><path d="M179.3,89.5h-1.8l-1.3-3.9h-6l-1.3,3.9h-1.7l4.9-14.1h2.3l4.9,14.1h0ZM173.1,77.1l-2.4,7.1h5.1l-2.4-7.1h-.3Z"/><path d="M196.2,89.7c-1.7,0-3-.4-3.9-1.3s-1.3-2.2-1.3-3.9v-9.1h1.6v9.1c0,1.2.3,2.2.9,2.8s1.5.9,2.7.9c2.4,0,3.6-1.2,3.6-3.7v-9.1h1.6v9.1c0,1.7-.4,3-1.3,3.9s-2.2,1.3-3.9,1.3h0Z"/><path d="M223.7,75.4v1.4h-4.4v12.7h-1.6v-12.7h-4.4v-1.4h10.5-.1Z"/><path d="M240.2,89.5h-1.7v-5.5l-4.9-8.6h1.8l3.8,6.6h.3l3.8-6.6h1.8l-4.9,8.6v5.5h0Z"/><path d="M163.5,11.5h-12.1l-10.2,18.2h0l-10.2-18.2h-17l-14,18.9-13.8-18.9h-9.1v13.6c-3.6-8.6-12.4-14.7-22.6-14.7s-11,1.9-15.2,5.1v-4H4.2v8.9h12.4v35.5h10.3V20.4h7.6c-2.7,3.8-4.3,8.3-4.3,13.3,0,12.9,10.8,23.3,24.3,23.3s19.1-6.1,22.6-14.7v13.7h10.4v-27.6l11.2,15.8h2.6l11.4-15.7v27.5h10.3V18.3l12.9,20.9v16.8h10.4v-16.8l17.1-27.6h.1v-.1ZM54.6,48c-7.7,0-13.9-6.2-13.9-14.4s6.3-14.4,13.9-14.4,14,6.2,14,14.4-6.2,14.4-14,14.4ZM341.7,10.4c-8.8,0-16.5,4.5-20.8,11.2-2-6.2-7.8-10.1-15.3-10.1h-58.6l-12.1,30.5h-.1l-12.1-30.5h-18.3v7.3c-2.7-4.5-7.7-7.3-14-7.3h-19.5v44.4h10.4v-14.5h6.6l7.7,14.5h19.1V18.6l15.5,37.3h9.3l15.5-37.5v37.5h41.4v-14.5h6.6l7.7,14.5h11.9l-9.4-16c1.6-.7,3.1-1.8,4.3-3,1.7,11.3,11.8,20,24,20s24.3-10.4,24.3-23.3-10.9-23.3-24.3-23.3h.2v.1ZM190.1,32.6h-8.7v-12.2h8.7c3.4,0,6.1,2.6,6.1,6.1s-2.7,6-6.1,6h0v.1ZM204.5,50.6l-6.3-10.7c2.7-1.2,4.8-3.1,6.3-5.6v16.3h0ZM286.2,47h-20.7v-8.7h18v-8.9h-18v-9.1h20.7v26.6h0v.1ZM305.2,32.6h-8.7v-12.2h8.7c3.4,0,6.1,2.6,6.1,6.1s-2.7,6-6.1,6h0v.1ZM341.7,48c-7.7,0-13.9-6.2-13.9-14.4s6.3-14.4,13.9-14.4,14,6.2,14,14.4-6.2,14.4-14,14.4Z"/></svg>