<?xml version="1.0" encoding="UTF-8"?><svg id="Layer_1" xmlns="http://www.w3.org/2000/svg" viewBox="0 0 370 100"><path d="M75.1,89.1v-14.1h5.4c.9,0,1.6.1,2.2.4.6.3,1.1.7,1.4,1.2.3.5.5,1.1.5,1.8s-.2,1.2-.5,1.7-.8.9-1.4,1.1v.2c.9.2,1.7.7,2.1,1.3.5.6.7,1.4.7,2.3s-.4,2.3-1.2,3-1.9,1.1-3.4,1.1h-5.8ZM80.3,80.9c.8,0,1.4-.2,1.8-.6.4-.4.6-1,.6-1.7s-.2-1.3-.6-1.7-1-.6-1.8-.6h-3.6v4.5h3.6v.1ZM80.7,87.7c2,0,3-.9,3-2.7s-1-2.7-3-2.7h-4v5.4h4Z" fill="#fff"/><path d="M99.4,82.4v5.3h7.2v1.4h-8.9v-14.1h8.7v1.4h-7v4.7h6.2v1.4h-6.2v-.1Z" fill="#fff"/><path d="M129.3,89.1h-1.8l-1.3-3.9h-6l-1.3,3.9h-1.7l4.9-14.1h2.3l4.9,14.1h0ZM123.1,76.7l-2.4,7.1h5.1l-2.4-7.1h-.3,0Z" fill="#fff"/><path d="M146.2,89.3c-1.7,0-3-.4-3.9-1.3s-1.3-2.2-1.3-3.9v-9.1h1.6v9.1c0,1.2.3,2.2.9,2.8.6.6,1.5.9,2.7.9,2.4,0,3.6-1.2,3.6-3.7v-9.1h1.6v9.1c0,1.7-.4,3-1.3,3.9-.9.9-2.2,1.3-3.9,1.3h0Z" fill="#fff"/><path d="M173.6,75v1.4h-4.4v12.7h-1.6v-12.7h-4.4v-1.4h10.5-.1Z" fill="#fff"/><path d="M190.1,89.1h-1.7v-5.5l-4.9-8.6h1.8l3.8,6.6h.3l3.8-6.6h1.8l-4.9,8.6v5.5h0Z" fill="#fff"/><path d="M226.1,89.3c-1.2,0-2.3-.3-3.3-.9s-1.7-1.4-2.3-2.5c-.5-1.1-.8-2.4-.8-3.9s.3-2.8.8-3.9,1.3-1.9,2.3-2.5,2.1-.9,3.3-.9,2.4.3,3.3.8c.9.5,1.5,1.2,1.9,2.2l-1.1.7h-.3c-.4-.8-.9-1.4-1.5-1.7-.6-.3-1.4-.5-2.4-.5s-1.7.2-2.4.6-1.2,1-1.6,1.9c-.4.8-.6,1.9-.6,3.3s.2,2.4.6,3.3c.4.8.9,1.5,1.6,1.9.7.4,1.5.6,2.4.6s1.9-.2,2.5-.7c.7-.5,1.1-1.2,1.5-2.2h.2l1.1.5c-.3,1.3-1,2.2-1.9,2.9-.9.7-2.1,1-3.4,1h.1Z" fill="#fff"/><path d="M253.9,89.1h-1.8l-1.3-3.9h-6l-1.3,3.9h-1.7l4.9-14.1h2.3l4.9,14.1h0ZM247.7,76.7l-2.4,7.1h5.1l-2.4-7.1h-.3,0Z" fill="#fff"/><path d="M274,75v1.4h-6.6v5.1h6v1.4h-6v6.2h-1.7v-14.1h8.3Z" fill="#fff"/><path d="M287.6,82.4v5.3h7.2v1.4h-8.9v-14.1h8.7v1.4h-7v4.7h6.2v1.4h-6.2v-.1ZM291,74h-1.3v-.2l1.6-2.5h2v.2l-2.4,2.5h.1Z" fill="#fff"/><path d="M163.6,11.8h-11.9l-10,18h0l-10-18h-16.8l-13.8,18.7-13.6-18.7h-9v13.4c-3.5-8.5-12.2-14.5-22.3-14.5s-10.9,1.9-15,5v-3.9H6.5v8.8h12.3v35.1h10.2V20.6h7.5c-2.7,3.7-4.2,8.2-4.2,13.1,0,12.7,10.7,23,24,23s18.8-6,22.3-14.6v13.6h10.2v-27.2l11.1,15.6h2.5l11.3-15.5v27.1h10.2V18.4l12.8,20.7v16.6h10.2v-16.6l16.9-27.3h-.2ZM55.9,47.9c-7.6,0-13.8-6.1-13.8-14.2s6.2-14.2,13.8-14.2,13.8,6.1,13.8,14.2-6.1,14.2-13.8,14.2ZM339.7,10.7c-8.7,0-16.3,4.4-20.5,11.1-2-6.1-7.7-10-15.1-10h-57.9l-11.9,30.1h0l-11.9-30.1h-18.1v7.2c-2.6-4.5-7.6-7.2-13.9-7.2h-19.2v43.9h10.2v-14.3h6.5l7.6,14.3h18.9V18.8l15.3,36.9h9.2l15.3-37v37h40.9v-14.3h6.5l7.6,14.3h11.7l-9.3-15.8c1.6-.7,3.1-1.7,4.2-2.9,1.6,11.2,11.6,19.8,23.7,19.8s24-10.3,24-23-10.8-23-24-23h.3l-.1-.1ZM189.8,32.6h-8.6v-12h8.6c3.4,0,6,2.5,6,6.1s-2.7,6-6,6h0v-.1ZM204.1,50.5l-6.2-10.6c2.7-1.2,4.8-3.1,6.2-5.5v16.1ZM284.8,46.9h-20.5v-8.6h17.7v-8.8h-17.7v-9h20.5v26.3h0v.1ZM303.6,32.6h-8.6v-12h8.6c3.4,0,6,2.5,6,6.1s-2.7,6-6,6h0v-.1ZM339.7,47.9c-7.6,0-13.8-6.1-13.8-14.2s6.2-14.2,13.8-14.2,13.8,6.1,13.8,14.2-6.1,14.2-13.8,14.2Z" fill="#fff"/></svg>