<?xml version="1.0" encoding="UTF-8"?><svg id="Layer_1" xmlns="http://www.w3.org/2000/svg" viewBox="0 0 370 100"><path d="M85.75,88.8v-14.1h5.4c.9,0,1.6.1,2.2.4s1.1.7,1.4,1.2.5,1.1.5,1.8-.2,1.2-.5,1.7-.8.9-1.4,1.1v.2c.9.2,1.7.7,2.1,1.3.5.6.7,1.4.7,2.3s-.4,2.3-1.2,3-1.9,1.1-3.4,1.1h-5.8ZM90.95,80.6c.8,0,1.4-.2,1.8-.6s.6-1,.6-1.7-.2-1.3-.6-1.7-1-.6-1.8-.6h-3.6v4.5h3.6v.1ZM91.35,87.4c2,0,3-.9,3-2.7s-1-2.7-3-2.7h-4v5.4h4Z" fill="#fff"/><path d="M110.05,82.1v5.3h7.2v1.4h-8.9v-14.1h8.7v1.4h-7v4.7h6.2v1.4h-6.2v-.1Z" fill="#fff"/><path d="M139.95,88.8h-1.8l-1.3-3.9h-6l-1.3,3.9h-1.7l4.9-14.1h2.3l4.9,14.1h0ZM133.75,76.4l-2.4,7.1h5.1l-2.4-7.1h-.3,0Z" fill="#fff"/><path d="M156.85,89c-1.7,0-3-.4-3.9-1.3s-1.3-2.2-1.3-3.9v-9.1h1.6v9.1c0,1.2.3,2.2.9,2.8.6.6,1.5.9,2.7.9,2.4,0,3.6-1.2,3.6-3.7v-9.1h1.6v9.1c0,1.7-.4,3-1.3,3.9s-2.2,1.3-3.9,1.3h0Z" fill="#fff"/><path d="M184.25,74.7v1.4h-4.4v12.7h-1.6v-12.7h-4.4v-1.4h10.5-.1Z" fill="#fff"/><path d="M200.75,88.8h-1.7v-5.5l-4.9-8.6h1.8l3.8,6.6h.3l3.8-6.6h1.8l-4.9,8.6v5.5h0Z" fill="#fff"/><path d="M232.75,74.7v12.7h6.8v1.4h-8.5v-14.1h1.7Z" fill="#fff"/><path d="M261.95,88.8h-1.8l-1.3-3.9h-6l-1.3,3.9h-1.7l4.9-14.1h2.3l4.9,14.1h0ZM255.75,76.4l-2.4,7.1h5.1l-2.4-7.1h-.3,0Z" fill="#fff"/><path d="M273.75,88.8v-14.1h5.4c.9,0,1.6.1,2.2.4s1.1.7,1.4,1.2.5,1.1.5,1.8-.2,1.2-.5,1.7-.8.9-1.4,1.1v.2c.9.2,1.7.7,2.1,1.3.5.6.7,1.4.7,2.3s-.4,2.3-1.2,3-1.9,1.1-3.4,1.1h-5.8ZM278.95,80.6c.8,0,1.4-.2,1.8-.6s.6-1,.6-1.7-.2-1.3-.6-1.7-1-.6-1.8-.6h-3.6v4.5h3.6v.1ZM279.35,87.4c2,0,3-.9,3-2.7s-1-2.7-3-2.7h-4v5.4h4Z" fill="#fff"/><path d="M163.65,12.1h-11.9l-10,17.9h0l-10-17.9h-16.7l-13.8,18.6-13.6-18.6h-8.9v13.4c-3.5-8.5-12.2-14.5-22.3-14.5s-10.9,1.9-15,5v-3.9H6.85v8.8h12.2v35h10.2V20.9h7.5c-2.7,3.7-4.2,8.2-4.2,13.1,0,12.7,10.7,22.9,23.9,22.9s18.8-6,22.3-14.5v13.5h10.2v-27.2l11.1,15.5h2.5l11.3-15.4v27.1h10.2V18.7l12.8,20.6v16.5h10.2v-16.6l16.9-27.2h-.3v.1ZM56.35,48.1c-7.6,0-13.7-6.1-13.7-14.2s6.2-14.2,13.7-14.2,13.8,6.1,13.8,14.2-6.1,14.2-13.8,14.2ZM339.25,11c-8.7,0-16.3,4.4-20.5,11-2-6.1-7.7-9.9-15.1-9.9h-57.7l-11.9,30h0l-11.9-30h-18.1v7.2c-2.6-4.5-7.6-7.2-13.8-7.2h-19.2v43.8h10.2v-14.3h6.5l7.6,14.3h18.9V19.2l15.2,36.7h9.2l15.3-36.9v36.9h40.8v-14.3h6.5l7.6,14.3h11.7l-9.2-15.8c1.6-.7,3-1.7,4.2-2.9,1.6,11.2,11.6,19.7,23.7,19.7s23.9-10.2,23.9-22.9-10.7-22.9-23.9-22.9h.1l-.1-.1ZM189.75,32.8h-8.6v-12h8.6c3.3,0,6,2.5,6,6s-2.7,6-6,6ZM204.05,50.6l-6.2-10.6c2.6-1.2,4.8-3.1,6.2-5.5v16.1ZM284.55,47.1h-20.4v-8.5h17.7v-8.8h-17.7v-8.9h20.4v26.2ZM303.25,32.8h-8.6v-12h8.6c3.3,0,6,2.5,6,6s-2.7,6-6,6ZM339.25,48.1c-7.6,0-13.7-6.1-13.7-14.2s6.2-14.2,13.7-14.2,13.8,6.1,13.8,14.2-6.1,14.2-13.8,14.2Z" fill="#fff"/></svg>